<svg width="248" height="76" viewBox="0 0 248 76" fill="none" xmlns="http://www.w3.org/2000/svg">
<path d="M53.4883 0H209.991C230.779 0 247.631 16.852 247.631 37.6399V37.6399C247.631 58.4279 230.779 75.2799 209.991 75.2799H53.4883V0Z" fill="#0D1E46"/>
<mask id="path-2-inside-1_5680_10437" fill="white">
<path fill-rule="evenodd" clip-rule="evenodd" d="M25.7534 75.2101C11.3607 74.1942 0 62.1964 0 47.5451C0 34.1943 9.43341 23.0468 21.9984 20.4043C28.2514 8.28578 40.8927 0 55.4692 0C73.0005 0 87.7325 11.9856 91.918 28.2096C102.77 30.4113 110.938 40.0053 110.938 51.5071C110.938 63.9692 101.349 74.1916 89.147 75.1983V75.2799H25.7534V75.2101Z"/>
</mask>
<path fill-rule="evenodd" clip-rule="evenodd" d="M25.7534 75.2101C11.3607 74.1942 0 62.1964 0 47.5451C0 34.1943 9.43341 23.0468 21.9984 20.4043C28.2514 8.28578 40.8927 0 55.4692 0C73.0005 0 87.7325 11.9856 91.918 28.2096C102.77 30.4113 110.938 40.0053 110.938 51.5071C110.938 63.9692 101.349 74.1916 89.147 75.1983V75.2799H25.7534V75.2101Z" fill="white"/>
<path d="M25.7534 75.2101H29.7155V71.5178L26.0324 71.2579L25.7534 75.2101ZM21.9984 20.4043L22.8138 24.2816L24.6561 23.8942L25.5194 22.2211L21.9984 20.4043ZM91.918 28.2096L88.0815 29.1993L88.7008 31.5997L91.1302 32.0926L91.918 28.2096ZM89.147 75.1983L88.8212 71.2497L85.1849 71.5497V75.1983H89.147ZM89.147 75.2799V79.242H93.1091V75.2799H89.147ZM25.7534 75.2799H21.7913V79.242H25.7534V75.2799ZM26.0324 71.2579C13.6996 70.3874 3.9621 60.1017 3.9621 47.5451H-3.9621C-3.9621 64.2911 9.02167 78.0011 25.4745 79.1624L26.0324 71.2579ZM3.9621 47.5451C3.9621 36.1063 12.0451 26.5463 22.8138 24.2816L21.183 16.5271C6.82167 19.5472 -3.9621 32.2823 -3.9621 47.5451H3.9621ZM25.5194 22.2211C31.1193 11.3683 42.4327 3.9621 55.4692 3.9621V-3.9621C39.3526 -3.9621 25.3835 5.20322 18.4774 18.5875L25.5194 22.2211ZM55.4692 3.9621C71.1497 3.9621 84.3364 14.6822 88.0815 29.1993L95.7545 27.2199C91.1287 9.28891 74.8514 -3.9621 55.4692 -3.9621V3.9621ZM91.1302 32.0926C100.172 33.927 106.976 41.9269 106.976 51.5071H114.9C114.9 38.0838 105.368 26.8957 92.7058 24.3266L91.1302 32.0926ZM106.976 51.5071C106.976 61.8902 98.9856 70.411 88.8212 71.2497L89.4728 79.147C103.713 77.9721 114.9 66.0482 114.9 51.5071H106.976ZM85.1849 75.1983V75.2799H93.1091V75.1983H85.1849ZM89.147 71.3178H25.7534V79.242H89.147V71.3178ZM29.7155 75.2799V75.2101H21.7913V75.2799H29.7155Z" fill="#294D97" mask="url(#path-2-inside-1_5680_10437)"/>
<path d="M24.1031 58.6589H30.5772V33.5531H24.1031V58.6589ZM34.4161 55.1208C36.938 57.5297 40.4762 59.1106 45.5576 59.1106C52.2951 59.1106 56.0215 55.7607 56.0215 50.7169C56.0215 45.0333 50.3002 43.8288 46.1598 42.9631C43.3745 42.4361 41.8312 41.9844 41.8312 40.667C41.8312 39.5755 42.6593 38.7098 44.8048 38.7098C47.0255 38.7098 49.7732 39.5755 51.8811 41.3069L55.4192 36.6772C52.7468 34.3812 49.2463 33.1767 45.2188 33.1767C38.7824 33.1767 35.2066 36.8278 35.2066 41.0434C35.2066 46.9906 41.0031 48.0445 45.1435 48.8725C47.816 49.4371 49.4345 50.0017 49.4345 51.4321C49.4345 52.6365 48.0794 53.5775 45.8587 53.5775C42.4335 53.5775 39.6481 52.0719 37.8414 50.2652L34.4161 55.1208ZM58.8989 46.1248C58.8989 53.7657 64.6578 59.1106 72.3363 59.1106C80.0149 59.1106 85.7362 53.7657 85.7362 46.1248C85.7362 38.4839 80.0149 33.1391 72.3363 33.1391C64.6578 33.1391 58.8989 38.4839 58.8989 46.1248ZM79.1492 46.1248C79.1492 50.1899 76.4767 53.3893 72.3363 53.3893C68.1583 53.3893 65.4859 50.1899 65.4859 46.1248C65.4859 42.0221 68.1583 38.8603 72.3363 38.8603C76.4767 38.8603 79.1492 42.0221 79.1492 46.1248Z" fill="#3299FE"/>
<path d="M121.189 23H124.596V9.78673H121.189V23ZM126.022 21.1379C127.349 22.4057 129.211 23.2377 131.886 23.2377C135.432 23.2377 137.393 21.4746 137.393 18.8201C137.393 15.8288 134.382 15.1949 132.203 14.7392C130.737 14.4619 129.925 14.2242 129.925 13.5308C129.925 12.9563 130.36 12.5007 131.49 12.5007C132.658 12.5007 134.105 12.9563 135.214 13.8676L137.076 11.431C135.67 10.2225 133.827 9.58863 131.708 9.58863C128.32 9.58863 126.438 11.5102 126.438 13.7289C126.438 16.8589 129.489 17.4136 131.668 17.8494C133.074 18.1466 133.926 18.4437 133.926 19.1965C133.926 19.8304 133.213 20.3256 132.044 20.3256C130.242 20.3256 128.776 19.5332 127.825 18.5824L126.022 21.1379ZM138.313 16.4033C138.313 20.4247 141.344 23.2377 145.385 23.2377C149.427 23.2377 152.438 20.4247 152.438 16.4033C152.438 12.3818 149.427 9.56882 145.385 9.56882C141.344 9.56882 138.313 12.3818 138.313 16.4033ZM148.971 16.4033C148.971 18.5427 147.564 20.2266 145.385 20.2266C143.186 20.2266 141.78 18.5427 141.78 16.4033C141.78 14.244 143.186 12.5799 145.385 12.5799C147.564 12.5799 148.971 14.244 148.971 16.4033ZM152.965 23.3962H155.124L159.819 9.39053H157.66L152.965 23.3962ZM161.002 23H164.409V9.78673H161.002V23ZM166.786 23H176.474V20.1275H170.194V17.7503H176.335V14.8581H170.194V12.6592H176.474V9.78673H166.786V23ZM184.831 23.2377C188.119 23.2377 189.843 21.3954 190.694 19.6917L187.763 18.305C187.327 19.355 186.198 20.2266 184.831 20.2266C182.77 20.2266 181.245 18.5626 181.245 16.4033C181.245 14.244 182.77 12.5799 184.831 12.5799C186.198 12.5799 187.327 13.4516 187.763 14.5015L190.694 13.1148C189.823 11.3715 188.119 9.56882 184.831 9.56882C180.869 9.56882 177.778 12.3224 177.778 16.4033C177.778 20.4643 180.869 23.2377 184.831 23.2377ZM120.872 47H131.232V44.0285H126.141C129.687 41.7305 131.133 40.0071 131.133 37.9864C131.133 35.3319 128.895 33.5886 125.785 33.5886C123.942 33.5886 121.842 34.2424 120.436 35.7875L122.318 38.0459C123.269 37.1544 124.378 36.5997 125.785 36.5997C126.815 36.5997 127.666 37.0752 127.666 37.9864C127.666 39.2939 126.597 40.2052 120.872 44.3455V47ZM134.41 47H138.154L142.81 36.1441V33.7867H132.449V36.7582H138.887L134.41 47ZM143.633 40.4033C143.633 43.8898 145.436 47.2377 149.299 47.2377C153.162 47.2377 154.964 43.8898 154.964 40.4033C154.964 36.9167 153.162 33.5886 149.299 33.5886C145.436 33.5886 143.633 36.9167 143.633 40.4033ZM151.518 40.4033C151.518 42.7409 150.884 44.2266 149.299 44.2266C147.714 44.2266 147.08 42.7409 147.08 40.4033C147.08 38.0657 147.714 36.5997 149.299 36.5997C150.884 36.5997 151.518 38.0657 151.518 40.4033ZM155.995 40.4033C155.995 43.8898 157.798 47.2377 161.661 47.2377C165.524 47.2377 167.326 43.8898 167.326 40.4033C167.326 36.9167 165.524 33.5886 161.661 33.5886C157.798 33.5886 155.995 36.9167 155.995 40.4033ZM163.879 40.4033C163.879 42.7409 163.246 44.2266 161.661 44.2266C160.076 44.2266 159.442 42.7409 159.442 40.4033C159.442 38.0657 160.076 36.5997 161.661 36.5997C163.246 36.5997 163.879 38.0657 163.879 40.4033ZM172.101 47H175.508V33.7867H172.557L167.941 38.343L169.882 40.3835L172.101 38.1449V47ZM177.495 39.1552C177.495 40.1655 178.346 41.0174 179.357 41.0174C180.367 41.0174 181.219 40.1655 181.219 39.1552C181.219 38.1449 180.367 37.2931 179.357 37.2931C178.346 37.2931 177.495 38.1449 177.495 39.1552ZM177.495 45.3756C177.495 46.3859 178.346 47.2377 179.357 47.2377C180.367 47.2377 181.219 46.3859 181.219 45.3756C181.219 44.3653 180.367 43.5134 179.357 43.5134C178.346 43.5134 177.495 44.3653 177.495 45.3756ZM182.701 47H193.061V44.0285H187.97C191.516 41.7305 192.962 40.0071 192.962 37.9864C192.962 35.3319 190.724 33.5886 187.613 33.5886C185.771 33.5886 183.671 34.2424 182.265 35.7875L184.147 38.0459C185.098 37.1544 186.207 36.5997 187.613 36.5997C188.644 36.5997 189.495 37.0752 189.495 37.9864C189.495 39.2939 188.426 40.2052 182.701 44.3455V47ZM194.377 40.4033C194.377 43.8898 196.18 47.2377 200.043 47.2377C203.906 47.2377 205.708 43.8898 205.708 40.4033C205.708 36.9167 203.906 33.5886 200.043 33.5886C196.18 33.5886 194.377 36.9167 194.377 40.4033ZM202.261 40.4033C202.261 42.7409 201.627 44.2266 200.043 44.2266C198.458 44.2266 197.824 42.7409 197.824 40.4033C197.824 38.0657 198.458 36.5997 200.043 36.5997C201.627 36.5997 202.261 38.0657 202.261 40.4033ZM210.483 47H213.89V33.7867H210.939L206.323 38.343L208.264 40.3835L210.483 38.1449V47ZM215.401 45.1577C216.431 46.3463 218.333 47.2377 220.869 47.2377C224.157 47.2377 226.336 45.6331 226.336 43.3153C226.336 41.4136 224.633 40.324 223.226 40.1854C224.791 39.9278 226.118 38.759 226.118 37.2139C226.118 35.0348 224.236 33.5886 220.869 33.5886C218.432 33.5886 216.689 34.4801 215.579 35.7281L217.184 37.8082C218.115 36.996 219.304 36.5007 220.512 36.5007C221.78 36.5007 222.731 36.9365 222.731 37.7685C222.731 38.5015 221.958 38.8977 220.591 38.8977C220.096 38.8977 219.066 38.8977 218.808 38.8779V41.8098C219.007 41.79 220.017 41.7702 220.591 41.7702C222.394 41.7702 222.949 42.206 222.949 42.9786C222.949 43.7512 222.196 44.3455 220.73 44.3455C219.581 44.3455 218.075 43.8502 217.125 42.9191L215.401 45.1577Z" fill="white"/>
<path d="M125.825 65.182C128.131 65.182 129.405 63.9533 130.134 62.6942L128.283 61.7991C127.858 62.6335 126.948 63.2706 125.825 63.2706C124.066 63.2706 122.731 61.8598 122.731 59.9484C122.731 58.037 124.066 56.6262 125.825 56.6262C126.948 56.6262 127.858 57.2785 128.283 58.0976L130.134 57.1874C129.421 55.9283 128.131 54.7147 125.825 54.7147C122.867 54.7147 120.516 56.8385 120.516 59.9484C120.516 63.0582 122.867 65.182 125.825 65.182ZM130.9 61.3289C130.9 63.6802 132.584 65.182 134.814 65.182C135.952 65.182 137.105 64.8331 137.833 64.1656L136.983 62.9217C136.513 63.3768 135.709 63.6499 135.026 63.6499C133.782 63.6499 133.039 62.8762 132.918 61.9508H138.364V61.5261C138.364 59.1292 136.877 57.4908 134.693 57.4908C132.463 57.4908 130.9 59.2051 130.9 61.3289ZM134.693 59.023C135.967 59.023 136.452 59.9484 136.498 60.6462H132.887C132.978 59.918 133.494 59.023 134.693 59.023ZM139.755 65H141.682V60.1608C142 59.6905 142.85 59.3264 143.487 59.3264C143.699 59.3264 143.881 59.3568 144.018 59.3871V57.506C143.108 57.506 142.198 58.0218 141.682 58.6741V57.6729H139.755V65ZM147.679 65.182C148.483 65.182 148.999 64.9697 149.287 64.7118L148.878 63.2554C148.772 63.3616 148.499 63.4678 148.21 63.4678C147.786 63.4678 147.543 63.1189 147.543 62.6638V59.3568H149.029V57.6729H147.543V55.6704H145.601V57.6729H144.387V59.3568H145.601V63.1796C145.601 64.4842 146.329 65.182 147.679 65.182ZM151.303 56.5958C151.94 56.5958 152.456 56.08 152.456 55.4429C152.456 54.8058 151.94 54.29 151.303 54.29C150.681 54.29 150.15 54.8058 150.15 55.4429C150.15 56.08 150.681 56.5958 151.303 56.5958ZM150.348 65H152.274V57.6729H150.348V65ZM160.101 56.5958C160.738 56.5958 161.254 56.08 161.254 55.4429C161.254 54.8058 160.738 54.29 160.101 54.29C159.479 54.29 158.948 54.8058 158.948 55.4429C158.948 56.08 159.479 56.5958 160.101 56.5958ZM154.609 65H156.551V59.3568H158.038V57.6729H156.551V57.2785C156.551 56.611 156.915 56.2469 157.461 56.2469C157.719 56.2469 157.932 56.3228 158.083 56.4289L158.478 55.0333C158.129 54.8513 157.628 54.7299 157.082 54.7299C155.641 54.7299 154.609 55.6856 154.609 57.2785V57.6729H153.396V59.3568H154.609V65ZM159.145 65H161.072V57.6729H159.145V65ZM162.514 61.3289C162.514 63.6802 164.198 65.182 166.428 65.182C167.566 65.182 168.719 64.8331 169.447 64.1656L168.597 62.9217C168.127 63.3768 167.323 63.6499 166.64 63.6499C165.396 63.6499 164.653 62.8762 164.532 61.9508H169.978V61.5261C169.978 59.1292 168.491 57.4908 166.307 57.4908C164.077 57.4908 162.514 59.2051 162.514 61.3289ZM166.307 59.023C167.581 59.023 168.066 59.9484 168.112 60.6462H164.501C164.592 59.918 165.108 59.023 166.307 59.023ZM176.406 65H178.347V54.8816H176.406V58.6134C175.829 57.8701 175.01 57.4908 174.145 57.4908C172.279 57.4908 170.899 58.9472 170.899 61.344C170.899 63.7864 172.295 65.182 174.145 65.182C175.025 65.182 175.829 64.7876 176.406 64.0595V65ZM176.406 62.6335C176.087 63.1189 175.389 63.4678 174.737 63.4678C173.645 63.4678 172.886 62.6031 172.886 61.344C172.886 60.0697 173.645 59.2051 174.737 59.2051C175.389 59.2051 176.087 59.554 176.406 60.0394V62.6335Z" fill="#3299FE"/>
</svg>
