<svg width="248" height="76" viewBox="0 0 248 76" fill="none" xmlns="http://www.w3.org/2000/svg">
<path d="M53.4883 0H209.991C230.779 0 247.631 16.852 247.631 37.6399V37.6399C247.631 58.4279 230.779 75.2799 209.991 75.2799H53.4883V0Z" fill="#0D1E46"/>
<mask id="path-2-inside-1_5680_10447" fill="white">
<path fill-rule="evenodd" clip-rule="evenodd" d="M25.7534 75.2101C11.3607 74.1942 0 62.1964 0 47.5451C0 34.1943 9.43341 23.0468 21.9984 20.4043C28.2514 8.28578 40.8927 0 55.4692 0C73.0005 0 87.7325 11.9856 91.918 28.2096C102.77 30.4113 110.938 40.0053 110.938 51.5071C110.938 63.9692 101.349 74.1916 89.147 75.1983V75.2799H25.7534V75.2101Z"/>
</mask>
<path fill-rule="evenodd" clip-rule="evenodd" d="M25.7534 75.2101C11.3607 74.1942 0 62.1964 0 47.5451C0 34.1943 9.43341 23.0468 21.9984 20.4043C28.2514 8.28578 40.8927 0 55.4692 0C73.0005 0 87.7325 11.9856 91.918 28.2096C102.77 30.4113 110.938 40.0053 110.938 51.5071C110.938 63.9692 101.349 74.1916 89.147 75.1983V75.2799H25.7534V75.2101Z" fill="#3299FE"/>
<path d="M25.7534 75.2101H29.7155V71.5178L26.0324 71.2579L25.7534 75.2101ZM21.9984 20.4043L22.8138 24.2816L24.6561 23.8942L25.5194 22.2211L21.9984 20.4043ZM91.918 28.2096L88.0815 29.1993L88.7008 31.5997L91.1302 32.0926L91.918 28.2096ZM89.147 75.1983L88.8212 71.2497L85.1849 71.5497V75.1983H89.147ZM89.147 75.2799V79.242H93.1091V75.2799H89.147ZM25.7534 75.2799H21.7913V79.242H25.7534V75.2799ZM26.0324 71.2579C13.6996 70.3874 3.9621 60.1017 3.9621 47.5451H-3.9621C-3.9621 64.2911 9.02167 78.0011 25.4745 79.1624L26.0324 71.2579ZM3.9621 47.5451C3.9621 36.1063 12.0451 26.5463 22.8138 24.2816L21.183 16.5271C6.82167 19.5472 -3.9621 32.2823 -3.9621 47.5451H3.9621ZM25.5194 22.2211C31.1193 11.3683 42.4327 3.9621 55.4692 3.9621V-3.9621C39.3526 -3.9621 25.3835 5.20322 18.4774 18.5875L25.5194 22.2211ZM55.4692 3.9621C71.1497 3.9621 84.3364 14.6822 88.0815 29.1993L95.7545 27.2199C91.1287 9.28891 74.8514 -3.9621 55.4692 -3.9621V3.9621ZM91.1302 32.0926C100.172 33.927 106.976 41.9269 106.976 51.5071H114.9C114.9 38.0838 105.368 26.8957 92.7058 24.3266L91.1302 32.0926ZM106.976 51.5071C106.976 61.8902 98.9856 70.411 88.8212 71.2497L89.4728 79.147C103.713 77.9721 114.9 66.0482 114.9 51.5071H106.976ZM85.1849 75.1983V75.2799H93.1091V75.1983H85.1849ZM89.147 71.3178H25.7534V79.242H89.147V71.3178ZM29.7155 75.2799V75.2101H21.7913V75.2799H29.7155Z" fill="#294D97" mask="url(#path-2-inside-1_5680_10447)"/>
<path d="M24.1031 58.6589H30.5772V33.5531H24.1031V58.6589ZM34.4161 55.1208C36.938 57.5297 40.4762 59.1106 45.5576 59.1106C52.2951 59.1106 56.0215 55.7607 56.0215 50.7169C56.0215 45.0333 50.3002 43.8288 46.1598 42.9631C43.3745 42.4361 41.8312 41.9844 41.8312 40.667C41.8312 39.5755 42.6593 38.7098 44.8048 38.7098C47.0255 38.7098 49.7732 39.5755 51.8811 41.3069L55.4192 36.6772C52.7468 34.3812 49.2463 33.1767 45.2188 33.1767C38.7824 33.1767 35.2066 36.8278 35.2066 41.0434C35.2066 46.9906 41.0031 48.0445 45.1435 48.8725C47.816 49.4371 49.4345 50.0017 49.4345 51.4321C49.4345 52.6365 48.0794 53.5775 45.8587 53.5775C42.4335 53.5775 39.6481 52.0719 37.8414 50.2652L34.4161 55.1208ZM58.8989 46.1248C58.8989 53.7657 64.6578 59.1106 72.3363 59.1106C80.0149 59.1106 85.7362 53.7657 85.7362 46.1248C85.7362 38.4839 80.0149 33.1391 72.3363 33.1391C64.6578 33.1391 58.8989 38.4839 58.8989 46.1248ZM79.1492 46.1248C79.1492 50.1899 76.4767 53.3893 72.3363 53.3893C68.1583 53.3893 65.4859 50.1899 65.4859 46.1248C65.4859 42.0221 68.1583 38.8603 72.3363 38.8603C76.4767 38.8603 79.1492 42.0221 79.1492 46.1248Z" fill="white"/>
<path d="M124.189 27H127.597V13.7847H124.189V27ZM129.023 25.1376C130.35 26.4056 132.213 27.2378 134.888 27.2378C138.434 27.2378 140.396 25.4744 140.396 22.8195C140.396 19.8277 137.384 19.1937 135.205 18.738C133.738 18.4606 132.926 18.2228 132.926 17.5294C132.926 16.9548 133.362 16.4991 134.491 16.4991C135.66 16.4991 137.107 16.9548 138.216 17.8662L140.079 15.4292C138.672 14.2206 136.829 13.5866 134.709 13.5866C131.321 13.5866 129.439 15.5085 129.439 17.7275C129.439 20.858 132.49 21.4127 134.67 21.8486C136.076 22.1458 136.928 22.443 136.928 23.1959C136.928 23.8299 136.215 24.3252 135.046 24.3252C133.243 24.3252 131.777 23.5327 130.826 22.5817L129.023 25.1376ZM141.316 20.4023C141.316 24.4243 144.347 27.2378 148.389 27.2378C152.431 27.2378 155.443 24.4243 155.443 20.4023C155.443 16.3802 152.431 13.5668 148.389 13.5668C144.347 13.5668 141.316 16.3802 141.316 20.4023ZM151.975 20.4023C151.975 22.5421 150.569 24.2262 148.389 24.2262C146.19 24.2262 144.783 22.5421 144.783 20.4023C144.783 18.2427 146.19 16.5784 148.389 16.5784C150.569 16.5784 151.975 18.2427 151.975 20.4023ZM162.189 25.9499C163.179 26.7424 164.645 27.2179 166.191 27.2179C170.193 27.2179 172.729 24.5828 172.729 20.3825C172.729 16.5784 170.906 13.5668 166.726 13.5668C163.655 13.5668 161.455 15.4887 161.455 18.203C161.455 21.0165 163.675 22.5025 166.052 22.5025C167.38 22.5025 168.628 21.8486 169.282 20.9769V21.1354C169.282 22.9383 168.014 24.3252 166.191 24.3252C165.121 24.3252 164.388 24.0479 163.655 23.4535L162.189 25.9499ZM169.282 18.8172C168.707 19.3918 167.895 19.7088 167.063 19.7088C165.993 19.7088 164.923 19.2333 164.923 18.0643C164.923 17.2718 165.616 16.4595 166.884 16.4595C168.549 16.4595 169.202 17.7275 169.282 18.8172ZM173.783 20.4023C173.783 23.8894 175.586 27.2378 179.449 27.2378C183.313 27.2378 185.116 23.8894 185.116 20.4023C185.116 16.9152 183.313 13.5866 179.449 13.5866C175.586 13.5866 173.783 16.9152 173.783 20.4023ZM181.668 20.4023C181.668 22.7402 181.034 24.2262 179.449 24.2262C177.864 24.2262 177.23 22.7402 177.23 20.4023C177.23 18.0643 177.864 16.5982 179.449 16.5982C181.034 16.5982 181.668 18.0643 181.668 20.4023ZM186.147 20.4023C186.147 23.8894 187.95 27.2378 191.813 27.2378C195.677 27.2378 197.48 23.8894 197.48 20.4023C197.48 16.9152 195.677 13.5866 191.813 13.5866C187.95 13.5866 186.147 16.9152 186.147 20.4023ZM194.032 20.4023C194.032 22.7402 193.398 24.2262 191.813 24.2262C190.228 24.2262 189.594 22.7402 189.594 20.4023C189.594 18.0643 190.228 16.5982 191.813 16.5982C193.398 16.5982 194.032 18.0643 194.032 20.4023ZM202.255 27H205.663V13.7847H202.711L198.094 18.3417L200.036 20.3825L202.255 18.1436V27ZM134.087 39.9494C134.087 36.9008 131.858 34.7168 128.794 34.7168C125.745 34.7168 123.516 36.9008 123.516 39.9494C123.516 42.998 125.745 45.182 128.794 45.182C129.673 45.182 130.492 45 131.205 44.6663L132.009 45.6218L133.511 44.3933L132.768 43.5288C133.602 42.6188 134.087 41.3751 134.087 39.9494ZM128.794 43.271C126.928 43.271 125.73 41.8301 125.73 39.9494C125.73 38.0535 126.928 36.6278 128.794 36.6278C130.659 36.6278 131.873 38.0535 131.873 39.9494C131.873 40.6774 131.691 41.3448 131.357 41.8756L130.204 40.5257L128.703 41.7391L129.855 43.089C129.537 43.2103 129.173 43.271 128.794 43.271ZM140.497 45H142.424V37.6743H140.497V42.6339C140.164 43.0586 139.572 43.4681 138.829 43.4681C138.01 43.4681 137.479 43.1345 137.479 42.1183V37.6743H135.553V42.8766C135.553 44.3023 136.311 45.182 137.919 45.182C139.117 45.182 139.997 44.636 140.497 44.0748V45ZM148.735 45H150.661V40.2679C150.661 38.1597 149.129 37.4923 147.461 37.4923C146.308 37.4923 145.155 37.8563 144.26 38.645L144.988 39.9342C145.61 39.3579 146.338 39.0697 147.127 39.0697C148.098 39.0697 148.735 39.555 148.735 40.2982V41.3144C148.249 40.7229 147.385 40.4196 146.414 40.4196C145.246 40.4196 143.866 41.0414 143.866 42.7553C143.866 44.3933 145.246 45.182 146.414 45.182C147.37 45.182 148.234 44.8332 148.735 44.2417V45ZM148.735 43.2406C148.416 43.6653 147.809 43.8776 147.188 43.8776C146.429 43.8776 145.807 43.4833 145.807 42.8008C145.807 42.0879 146.429 41.6936 147.188 41.6936C147.809 41.6936 148.416 41.9059 148.735 42.3306V43.2406ZM152.571 45H154.498V34.8836H152.571V45ZM157.363 36.5975C158 36.5975 158.516 36.0818 158.516 35.4448C158.516 34.8078 158 34.2921 157.363 34.2921C156.741 34.2921 156.21 34.8078 156.21 35.4448C156.21 36.0818 156.741 36.5975 157.363 36.5975ZM156.408 45H158.334V37.6743H156.408V45ZM162.701 45.182C163.505 45.182 164.02 44.9697 164.308 44.7118L163.899 43.2558C163.793 43.362 163.52 43.4681 163.232 43.4681C162.807 43.4681 162.564 43.1193 162.564 42.6643V39.3579H164.051V37.6743H162.564V35.6723H160.623V37.6743H159.41V39.3579H160.623V43.18C160.623 44.4843 161.351 45.182 162.701 45.182ZM165.399 46.1375L165.111 47.8666C165.353 47.9272 165.839 47.9727 166.066 47.9727C167.325 47.9424 168.296 47.5784 168.842 46.1982L172.285 37.6743H170.207L168.296 42.7705L166.385 37.6743H164.322L167.295 45.1062L167.022 45.728C166.84 46.1224 166.506 46.2589 166.006 46.2589C165.824 46.2589 165.566 46.2134 165.399 46.1375ZM132.798 63H134.967V52.8836H131.933L129.476 59.1931L127.019 52.8836H124.001V63H126.155V55.7198L129.006 63H129.946L132.798 55.7198V63ZM141.329 63H143.255V58.2679C143.255 56.1597 141.723 55.4923 140.055 55.4923C138.902 55.4923 137.749 55.8563 136.855 56.645L137.583 57.9342C138.204 57.3579 138.932 57.0697 139.721 57.0697C140.692 57.0697 141.329 57.555 141.329 58.2982V59.3144C140.843 58.7229 139.979 58.4196 139.008 58.4196C137.84 58.4196 136.46 59.0414 136.46 60.7553C136.46 62.3933 137.84 63.182 139.008 63.182C139.964 63.182 140.828 62.8332 141.329 62.2417V63ZM141.329 61.2406C141.01 61.6653 140.404 61.8776 139.782 61.8776C139.023 61.8776 138.402 61.4833 138.402 60.8008C138.402 60.0879 139.023 59.6936 139.782 59.6936C140.404 59.6936 141.01 59.9059 141.329 60.3306V61.2406ZM150.11 63H152.036V57.8281C152.036 56.4024 151.263 55.4923 149.655 55.4923C148.457 55.4923 147.562 56.0687 147.092 56.6299V55.6743H145.166V63H147.092V58.0707C147.41 57.6309 148.002 57.2062 148.76 57.2062C149.579 57.2062 150.11 57.555 150.11 58.5712V63ZM158.347 63H160.273V58.2679C160.273 56.1597 158.742 55.4923 157.073 55.4923C155.921 55.4923 154.768 55.8563 153.873 56.645L154.601 57.9342C155.223 57.3579 155.951 57.0697 156.74 57.0697C157.71 57.0697 158.347 57.555 158.347 58.2982V59.3144C157.862 58.7229 156.997 58.4196 156.027 58.4196C154.859 58.4196 153.479 59.0414 153.479 60.7553C153.479 62.3933 154.859 63.182 156.027 63.182C156.982 63.182 157.847 62.8332 158.347 62.2417V63ZM158.347 61.2406C158.029 61.6653 157.422 61.8776 156.8 61.8776C156.042 61.8776 155.42 61.4833 155.42 60.8008C155.42 60.0879 156.042 59.6936 156.8 59.6936C157.422 59.6936 158.029 59.9059 158.347 60.3306V61.2406ZM162.032 64.8807C162.958 65.6846 163.928 65.9727 165.187 65.9727C166.992 65.9727 169.146 65.2902 169.146 62.4995V55.6743H167.204V56.6147C166.613 55.8715 165.824 55.4923 164.944 55.4923C163.094 55.4923 161.714 56.827 161.714 59.2234C161.714 61.6653 163.109 62.9545 164.944 62.9545C165.839 62.9545 166.628 62.5298 167.204 61.8018V62.545C167.204 63.9859 166.112 64.3954 165.187 64.3954C164.262 64.3954 163.488 64.1375 162.897 63.4853L162.032 64.8807ZM167.204 60.4064C166.886 60.8766 166.188 61.2406 165.551 61.2406C164.459 61.2406 163.701 60.4823 163.701 59.2234C163.701 57.9646 164.459 57.2062 165.551 57.2062C166.188 57.2062 166.886 57.555 167.204 58.0404V60.4064ZM170.586 59.3296C170.586 61.6805 172.27 63.182 174.499 63.182C175.637 63.182 176.789 62.8332 177.517 62.1658L176.668 60.9221C176.198 61.3771 175.394 61.6501 174.711 61.6501C173.468 61.6501 172.725 60.8766 172.603 59.9514H178.048V59.5268C178.048 57.1304 176.562 55.4923 174.378 55.4923C172.148 55.4923 170.586 57.2062 170.586 59.3296ZM174.378 57.0242C175.652 57.0242 176.137 57.9494 176.183 58.6471H172.573C172.664 57.9191 173.18 57.0242 174.378 57.0242ZM188.524 63H190.466V57.7067C190.466 56.2052 189.662 55.4923 188.312 55.4923C187.19 55.4923 186.219 56.1597 185.794 56.827C185.521 55.9928 184.839 55.4923 183.762 55.4923C182.64 55.4923 181.669 56.19 181.366 56.6299V55.6743H179.439V63H181.366V58.0707C181.654 57.6612 182.215 57.2062 182.882 57.2062C183.671 57.2062 183.974 57.6916 183.974 58.3741V63H185.916V58.0556C186.189 57.6612 186.75 57.2062 187.432 57.2062C188.221 57.2062 188.524 57.6916 188.524 58.3741V63ZM191.885 59.3296C191.885 61.6805 193.568 63.182 195.798 63.182C196.936 63.182 198.088 62.8332 198.816 62.1658L197.967 60.9221C197.497 61.3771 196.693 61.6501 196.01 61.6501C194.767 61.6501 194.023 60.8766 193.902 59.9514H199.347V59.5268C199.347 57.1304 197.861 55.4923 195.677 55.4923C193.447 55.4923 191.885 57.2062 191.885 59.3296ZM195.677 57.0242C196.951 57.0242 197.436 57.9494 197.482 58.6471H193.872C193.963 57.9191 194.478 57.0242 195.677 57.0242ZM205.683 63H207.609V57.8281C207.609 56.4024 206.836 55.4923 205.228 55.4923C204.03 55.4923 203.135 56.0687 202.665 56.6299V55.6743H200.738V63H202.665V58.0707C202.983 57.6309 203.575 57.2062 204.333 57.2062C205.152 57.2062 205.683 57.555 205.683 58.5712V63ZM211.979 63.182C212.783 63.182 213.298 62.9697 213.586 62.7118L213.177 61.2558C213.071 61.362 212.798 61.4681 212.51 61.4681C212.085 61.4681 211.842 61.1193 211.842 60.6643V57.3579H213.329V55.6743H211.842V53.6723H209.901V55.6743H208.687V57.3579H209.901V61.18C209.901 62.4843 210.629 63.182 211.979 63.182Z" fill="white"/>
</svg>
